<?xml version="1.0" encoding="UTF-8" standalone="no"?>
<svg
   xmlns:dc="http://purl.org/dc/elements/1.1/"
   xmlns:cc="http://creativecommons.org/ns#"
   xmlns:rdf="http://www.w3.org/1999/02/22-rdf-syntax-ns#"
   xmlns:svg="http://www.w3.org/2000/svg"
   xmlns="http://www.w3.org/2000/svg"
   xmlns:sodipodi="http://sodipodi.sourceforge.net/DTD/sodipodi-0.dtd"
   xmlns:inkscape="http://www.inkscape.org/namespaces/inkscape"
   viewBox="0.0 0.0 348.0 348.0"
   fill="none"
   id="svg2"
   version="1.1"
   inkscape:version="0.91 r13725"
   sodipodi:docname="Spinning Buttons.svg">
  <metadata
     id="metadata12">
    <rdf:RDF>
      <cc:Work
         rdf:about="">
        <dc:format>image/svg+xml</dc:format>
        <dc:type
           rdf:resource="http://purl.org/dc/dcmitype/StillImage" />
      </cc:Work>
    </rdf:RDF>
  </metadata>
  <defs
     id="defs10" />
  <sodipodi:namedview
     pagecolor="#ffffff"
     bordercolor="#666666"
     borderopacity="1"
     objecttolerance="10"
     gridtolerance="10"
     guidetolerance="10"
     inkscape:pageopacity="0"
     inkscape:pageshadow="2"
     inkscape:window-width="1440"
     inkscape:window-height="781"
     id="namedview8"
     showgrid="false"
     inkscape:zoom="1.4142136"
     inkscape:cx="117.43146"
     inkscape:cy="174.01509"
     inkscape:window-x="0"
     inkscape:window-y="1"
     inkscape:window-maximized="1"
     inkscape:current-layer="svg2" />
  <path
     d="M5.079 5.776h336.913v337.67H5.08z"
     stroke-width="2"
     stroke="#000"
     id="path4" />
  <path
     d="M282.734 40.554c0-8.376 6.966-15.165 15.56-15.165 4.126 0 8.084 1.597 11.001 4.441 2.918 2.844 4.558 6.702 4.558 10.724 0 8.376-6.966 15.165-15.56 15.165-8.593 0-15.559-6.79-15.559-15.165z"
     stroke-width="2"
     stroke="#000"
     id="path6" />
  <path
     style="fill:#ffffff;fill-opacity:1;stroke-width:0.2;stroke-linejoin:miter;stroke-miterlimit:10;stroke-dasharray:none"
     id="path4140"
     sodipodi:type="arc"
     sodipodi:cx="169.94492"
     sodipodi:cy="181.00424"
     sodipodi:rx="144.87712"
     sodipodi:ry="131.60593"
     sodipodi:start="0"
     sodipodi:end="3.1415927"
     d="m 314.82204,181.00424 a 144.87712,131.60593 0 0 1 -72.43857,113.97408 144.87712,131.60593 0 0 1 -144.877119,0 144.87712,131.60593 0 0 1 -72.438556,-113.97408 l 144.877125,0 z" />
  <circle
     style="fill:#ffffff;fill-opacity:1;stroke:#000000;stroke-width:2.18307114;stroke-linejoin:miter;stroke-miterlimit:10;stroke-dasharray:none;stroke-opacity:1"
     id="path4144"
     cx="171.53568"
     cy="175.53241"
     r="146.46928" />
  <circle
     style="fill:#ffffff;fill-opacity:1;stroke:#000000;stroke-width:2;stroke-linejoin:miter;stroke-miterlimit:10;stroke-dasharray:none;stroke-opacity:1"
     id="path4146"
     cx="173.59473"
     cy="92.623535"
     r="29.344931" />
  <circle
     r="6.0955782"
     cy="42.418949"
     cx="172.76631"
     id="circle4148"
     style="fill:#ffffff;fill-opacity:1;stroke:#000000;stroke-width:0.41544336;stroke-linejoin:miter;stroke-miterlimit:10;stroke-dasharray:none;stroke-opacity:1" />
  <g
     style="font-style:normal;font-weight:normal;font-size:40px;line-height:125%;font-family:sans-serif;letter-spacing:0px;word-spacing:0px;fill:#000000;fill-opacity:1;stroke:none;stroke-width:1px;stroke-linecap:butt;stroke-linejoin:miter;stroke-opacity:1"
     id="text4150">
    <path
       d="m 168.97388,83.775398 q -0.6836,-0.371093 -1.5625,-0.371093 -1.97266,0 -3.16407,1.347656 -1.17187,1.347656 -1.17187,3.652344 l 0.0586,1.132812 q 0,1.5625 0.625,3.066406 0.64453,1.484375 1.64063,2.675782 0.99609,1.171875 2.24609,1.914062 1.26953,0.742188 2.5586,0.742188 1.07421,0 1.79687,-0.722657 l 0,-11.289062 -3.02734,-2.148438 z m 10.83984,15.273438 q 0.54688,0.332031 1.50391,0.332031 2.01172,0 3.24218,-1.347656 1.25,-1.347656 1.25,-3.75 l -0.0391,-0.996094 q 0,-1.679687 -0.66406,-3.203125 -0.66406,-1.542969 -1.67969,-2.714844 -1.01562,-1.191406 -2.28515,-1.894531 -1.25,-0.703125 -2.5,-0.703125 -1.11329,0 -1.79688,0.800781 l 0,11.230469 2.96875,2.246094 0,0 z m 0.39063,-19.511719 q 2.79296,0.839844 4.16015,1.953125 0.11719,0.117188 0.85938,0.898438 0.74218,0.78125 2.10937,2.226562 1.11328,1.230469 1.75781,3.164063 0.66407,1.914062 0.66407,4.082031 l 0,0.996094 q -0.0781,0.273437 -0.0781,0.546875 0,0.253906 -0.0781,0.488281 -0.42969,1.835937 -1.42578,3.417969 -0.97657,1.582031 -2.2461,2.734375 -1.25,1.13281 -2.67578,1.79687 -1.40625,0.64454 -2.73437,0.64454 l -3.67188,-2.949223 0,6.953123 -4.84375,0 0,-6.953123 -3.4375,3.671873 q -3.16406,-0.8789 -4.84375,-2.4414 -0.0781,-0.0781 -0.64453,-0.70313 -0.54688,-0.64453 -1.58203,-1.855468 -1.13281,-1.308594 -1.77735,-3.242187 -0.625,-1.953125 -0.625,-4.199219 l 0,-1.347656 q 0,-0.214844 0.11719,-0.449219 0.83985,-3.515625 3.16406,-5.800781 0.50782,-0.527344 1.28907,-1.015625 0.78125,-0.507813 1.62109,-0.898438 0.83984,-0.410156 1.64063,-0.664062 0.80078,-0.253907 1.32812,-0.253907 l 3.75,2.792969 0,-6.71875 4.84375,0 0,6.796875 3.35938,-3.671875 0,0 z"
       style="font-style:normal;font-variant:normal;font-weight:normal;font-stretch:normal;font-family:Miroslav;-inkscape-font-specification:Miroslav"
       id="path4185" />
  </g>
  <circle
     r="29.344931"
     cy="-258.89413"
     cx="-173.59473"
     id="circle4154"
     style="fill:#ffffff;fill-opacity:1;stroke:#000000;stroke-width:2;stroke-linejoin:miter;stroke-miterlimit:10;stroke-dasharray:none;stroke-opacity:1"
     transform="scale(-1,-1)" />
  <circle
     style="fill:#ffffff;fill-opacity:1;stroke:#000000;stroke-width:0.41544336;stroke-linejoin:miter;stroke-miterlimit:10;stroke-dasharray:none;stroke-opacity:1"
     id="circle4156"
     cx="-174.42314"
     cy="-309.09872"
     r="6.0955782"
     transform="scale(-1,-1)" />
  <g
     transform="scale(-1,-1)"
     style="font-style:normal;font-weight:normal;font-size:40px;line-height:125%;font-family:sans-serif;letter-spacing:0px;word-spacing:0px;fill:#000000;fill-opacity:1;stroke:none;stroke-width:1px;stroke-linecap:butt;stroke-linejoin:miter;stroke-opacity:1"
     id="text4158">
    <path
       d="m -176.03198,-268.18758 q -1.50391,2.44141 -2.20703,5.17578 -0.70313,2.71485 -0.70313,5.35157 0,1.99218 0.25391,3.53515 0.2539,1.54297 0.85937,3.22266 l 5.76172,0 -3.96484,-17.28516 z m -2.03125,19.08203 -3.20313,4.51172 -3.28125,-6.30859 2.63672,0 q -0.46875,-2.05078 -0.46875,-4.27734 0,-2.08985 0.3711,-4.17969 0.39062,-2.10938 1.13281,-4.04297 0.76172,-1.93359 1.85547,-3.61328 1.11328,-1.69922 2.51953,-2.92969 l -0.83985,-3.08594 4.19922,0 5.23438,22.12891 2.71484,0 -3.35937,6.30859 -3.51563,-4.51172 -5.99609,0 z"
       style="font-style:normal;font-variant:normal;font-weight:normal;font-stretch:normal;font-family:Miroslav;-inkscape-font-specification:Miroslav"
       id="path4182" />
  </g>
  <circle
     transform="matrix(0,-1,1,0,0,0)"
     style="fill:#ffffff;fill-opacity:1;stroke:#000000;stroke-width:2;stroke-linejoin:miter;stroke-miterlimit:10;stroke-dasharray:none;stroke-opacity:1"
     id="circle4162"
     cx="-172.63753"
     cy="89.338112"
     r="29.344931" />
  <circle
     transform="matrix(0,-1,1,0,0,0)"
     r="6.0955782"
     cy="39.133522"
     cx="-173.46593"
     id="circle4164"
     style="fill:#ffffff;fill-opacity:1;stroke:#000000;stroke-width:0.41544336;stroke-linejoin:miter;stroke-miterlimit:10;stroke-dasharray:none;stroke-opacity:1" />
  <g
     transform="matrix(0,-1,1,0,0,0)"
     style="font-style:normal;font-weight:normal;font-size:40px;line-height:125%;font-family:sans-serif;letter-spacing:0px;word-spacing:0px;fill:#000000;fill-opacity:1;stroke:none;stroke-width:1px;stroke-linecap:butt;stroke-linejoin:miter;stroke-opacity:1"
     id="text4166">
    <path
       d="m -181.23494,89.204826 q 0,2.480469 0.50781,4.785157 0.50782,2.304687 1.69922,5.214843 l -4.16015,0 q -0.76172,-1.367187 -1.21094,-3.164062 -0.42969,-1.796875 -0.42969,-3.59375 0,-1.953125 0.42969,-4.003906 0.44922,-2.070313 1.23047,-3.984375 0.78125,-1.933594 1.83593,-3.554688 1.07422,-1.621094 2.30469,-2.773437 l -0.72265,-2.929688 4.16015,0 2.16797,8.769531 q 2.59766,0.390625 4.57031,1.269532 1.99219,0.878906 3.45703,2.363281 1.48438,1.484375 2.48047,3.554687 1.01563,2.050782 1.67969,4.765625 l 0.76172,3.28125 -13.47656,0 -4.47266,-19.277343 q -1.44531,2.207031 -2.12891,4.453125 -0.68359,2.226562 -0.68359,4.824218 z m 16.40625,8.125 -0.91797,-3.847656 q -0.3125,-1.347656 -1.17187,-2.714844 -0.85938,-1.367187 -1.9336,-2.441406 -1.05468,-1.074219 -2.1875,-1.777344 -1.11328,-0.703125 -1.99218,-0.703125 l 2.8125,11.484375 5.39062,0 z"
       style="font-style:normal;font-variant:normal;font-weight:normal;font-stretch:normal;font-family:Miroslav;-inkscape-font-specification:Miroslav"
       id="path4179" />
  </g>
  <circle
     r="29.344931"
     cy="-253.17442"
     cx="172.88724"
     id="circle4170"
     style="fill:#ffffff;fill-opacity:1;stroke:#000000;stroke-width:2;stroke-linejoin:miter;stroke-miterlimit:10;stroke-dasharray:none;stroke-opacity:1"
     transform="matrix(0,1,-1,0,0,0)" />
  <circle
     style="fill:#ffffff;fill-opacity:1;stroke:#000000;stroke-width:0.41544336;stroke-linejoin:miter;stroke-miterlimit:10;stroke-dasharray:none;stroke-opacity:1"
     id="circle4172"
     cx="172.05884"
     cy="-303.379"
     r="6.0955782"
     transform="matrix(0,1,-1,0,0,0)" />
  <g
     transform="matrix(0,1,-1,0,0,0)"
     style="font-style:normal;font-weight:normal;font-size:40px;line-height:125%;font-family:sans-serif;letter-spacing:0px;word-spacing:0px;fill:#000000;fill-opacity:1;stroke:none;stroke-width:1px;stroke-linecap:butt;stroke-linejoin:miter;stroke-opacity:1"
     id="text4174">
    <path
       d="m 180.73514,-243.18271 0,-3.84765 q 0,-1.34766 -0.46875,-2.71485 -0.44922,-1.36719 -1.21094,-2.4414 -0.76172,-1.07422 -1.71875,-1.71875 -0.95703,-0.64454 -1.95312,-0.60547 l 0,11.32812 5.35156,0 z m -9.51172,-11.32812 -5.44922,0 0,13.20312 -4.16016,0 0,-24.0039 4.16016,0 0,8.6914 5.44922,0 0,-8.6914 4.16016,0 0,8.6914 q 2.51953,0.42969 4.33593,1.34766 1.81641,0.91797 2.94922,2.38281 1.15235,1.46484 1.67969,3.53516 0.54687,2.05078 0.54687,4.76562 l 0,3.28125 -13.67187,0 0,-13.20312 z"
       style="font-style:normal;font-variant:normal;font-weight:normal;font-stretch:normal;font-family:Miroslav;-inkscape-font-specification:Miroslav"
       id="path4188" />
  </g>
</svg>
